# xmcd CD database file
#
# Track frame offsets:
#	150
#	9225
#	21061
#	41653
#	55250
#	66610
#	89270
#	93321
#	117136
#	135229
#	145548
#	165168
#	184895
#	204266
#	218097
#	237225
#	254548
#	267910
#	273466
#	306055
#	312171
#
# Disc length: 4195 seconds
#
# Revision: 2
# Processed by: cddbd v1.5.2PL0 Copyright (c) Steve Scherf et al.
# Submitted via: CDex 1.70beta2
#
DISCID=1a106115
DTITLE=Elias Akselsen og Hulda Johansen - Barn av den bortglemte rase
DYEAR=2000
DGENRE=Jazz
TTITLE0=Elias Akselsen - Friarvise
TTITLE1=Elias Akselsen - Tack vare den som gav mej vandringsstaven
TTITLE2=Elias Akselsen - Vallesongen
TTITLE3=Elias Akselsen - Vil du ganga den veg
TTITLE4=Elias Akselsen - Johannes
TTITLE5=Elias Akselsen - Vigartvisa
TTITLE6=Elias Akselsen - Ola han gjeng seg
TTITLE7=Elias Akselsen - Varulven
TTITLE8=Elias Akselsen - Lasarus
TTITLE9=Elias Akselsen - På den villede heien
TTITLE10=Elias Akselsen - Kjæreste venn, du som vandrer omkring
TTITLE11=Elias Akselsen - Hjemlandsklokka
TTITLE12=Elias Akselsen - Dybendalvisa
TTITLE13=Hulda Johansen - Barn av den bortglemte rase
TTITLE14=Hulda Johansen - Burobengen
TTITLE15=Hulda Johansen - Dybendalvisa
TTITLE16=Hulda Johansen - Et minne dypt i hjertet mitt jeg bærer
TTITLE17=Hulda Johansen - Hva mente du mang en gang
TTITLE18=Hulda Johansen - Vesle Marit
TTITLE19=Hulda Johansen - Ei kjærleiksvise
TTITLE20=Hulda Johansen - Gråtende sky
EXTD=YEAR: 2000
EXTT0=
EXTT1=
EXTT2=
EXTT3=
EXTT4=
EXTT5=
EXTT6=
EXTT7=
EXTT8=
EXTT9=
EXTT10=
EXTT11=
EXTT12=
EXTT13=
EXTT14=
EXTT15=
EXTT16=
EXTT17=
EXTT18=
EXTT19=
EXTT20=
PLAYORDER=
